<?xml version="1.0" encoding="UTF-8" standalone="no"?><!DOCTYPE svg PUBLIC "-//W3C//DTD SVG 1.1//EN" "http://www.w3.org/Graphics/SVG/1.1/DTD/svg11.dtd"><svg width="100%" height="100%" viewBox="0 0 2250 2250" version="1.1" xmlns="http://www.w3.org/2000/svg" xmlns:xlink="http://www.w3.org/1999/xlink" xml:space="preserve" xmlns:serif="http://www.serif.com/" style="fill-rule:evenodd;clip-rule:evenodd;stroke-linecap:round;stroke-miterlimit:1.5;"><path d="M2165.85,229.603l-0,1826.97c-0,57.844 -46.962,104.806 -104.806,104.806l-1833.07,-0c-57.844,-0 -104.806,-46.962 -104.806,-104.806l-0,-1826.97c-0,-57.844 46.962,-104.806 104.806,-104.806l1833.07,-0c57.844,-0 104.806,46.962 104.806,104.806Z" style="fill:#ebebeb;"/><rect x="1874.99" y="210.163" width="207.528" height="208.537" style="fill:#f20d0d;stroke:#000;stroke-width:62.5px;"/><rect x="208.537" y="418.699" width="1457.11" height="209.35" style="fill:#f25e0d;stroke:#000;stroke-width:62.5px;"/><rect x="830.277" y="628.049" width="1252.24" height="203.252" style="fill:#ebebeb;stroke:#000;stroke-width:62.5px;"/><rect x="208.537" y="831.301" width="831.09" height="632.114" style="fill:#ebebeb;stroke:#000;stroke-width:62.5px;"/><rect x="830.277" y="1463.41" width="1252.24" height="616.667" style="fill:#ebebeb;stroke:#000;stroke-width:62.5px;"/><rect x="1456.4" y="831.301" width="626.122" height="632.114" style="fill:#0d28f2;stroke:#000;stroke-width:62.5px;"/><rect x="830.277" y="1664.63" width="1252.24" height="211.382" style="fill:#43f20d;stroke:#000;stroke-width:62.5px;"/><rect x="415.643" y="831.301" width="414.634" height="632.114" style="fill:#dae61a;stroke:#000;stroke-width:62.5px;"/><path d="M208.537,418.699l1873.98,0" style="fill:none;stroke:#000;stroke-width:62.5px;"/><path d="M1874.99,418.699l0,-208.536" style="fill:none;stroke:#000;stroke-width:62.5px;"/><rect x="208.537" y="210.163" width="1873.98" height="1869.92" style="fill:none;stroke:#000;stroke-width:62.5px;"/><g transform="matrix(204.299,0,0,204.299,1548.08,387.602)"></g><text x="219.735px" y="387.602px" style="font-family:'ArialMT', 'Arial', sans-serif;font-size:204.299px;">DEVELOPING</text><g transform="matrix(204.299,0,0,204.299,1647.79,802.796)"></g><text x="841.861px" y="802.796px" style="font-family:'ArialMT', 'Arial', sans-serif;font-size:204.299px;">BETTER</text><g transform="matrix(204.299,0,0,204.299,2063.75,2054.88)"></g><text x="849.33px" y="2054.88px" style="font-family:'ArialMT', 'Arial', sans-serif;font-size:204.299px;">COMMANDS</text></svg>